<?xml version="1.0" standalone="yes"?>
<svg xmlns="http://www.w3.org/2000/svg" version="1.1" viewBox="-4486 -18737 15315 12000">
<path fill="currentColor" d="M -4199,-18559 l 6272,27 843,-9 949,-9 321,0 316,-5 156,-5 1299,-14 3347,-36 86,0 1204,-27 6,458 5,108 11,622 12,720 5,195 5,304 11,323 -5,170 11,488 6,175 5,303 -246,10 0,159 33,1761 166,-10 73,1903 -25,0 30,2856 31,957 1,108 -46,-5 -100,10 -86,11 -30,30 -36,41 -65,21 -81,15 -65,16 -111,25 -55,0 -187,21 -35,5 -86,0 0,-102 -10,-138 -30,-57 30,-72 50,-51 50,-56 20,-56 21,-77 0,-57 45,-87 5,-56 -16,-72 -55,-72 -81,-61 -85,-26 -51,-30 -50,-57 -46,-61 -70,-72 -51,-164 -20,-143 -20,-108 -21,-123 -20,-92 -45,-61 -41,-52 -40,-66 -20,-36 -45,-26 -26,-15 -55,5 -30,-15 -56,5 -50,-16 -50,-20 -86,21 -55,-52 -46,-41 -20,-30 -55,-21 -56,5 -75,36 -51,36 -65,41 -30,20 -25,52 -15,10 -36,26 -105,10 -46,15 -45,26 -25,26 -45,35 -36,21 -50,20 -35,21 -66,31 -45,30 -30,26 -25,20 -46,11 -35,10 -76,5 -25,-31 -35,-10 -45,-31 -21,-25 -70,-36 -81,36 -55,30 -15,36 -30,31 -30,21 -26,35 -5,26 -25,67 -25,61 -5,31 -5,25 5,36 -5,21 -5,25 0,41 5,26 0,67 -5,41 -15,20 -5,26 -30,20 -358,15 -66,0 -60,-25 -191,-221 -56,-56 -70,-15 -66,10 -75,5 -71,0 -75,-16 -61,-25 -55,-21 -106,144 -25,30 -15,36 -16,46 -20,36 -30,21 -65,51 -41,31 -30,41 -20,35 -25,21 -61,61 -65,31 -41,31 -40,41 -40,36 -31,35 -30,31 -96,102 -10,26 -40,31 -70,46 -81,10 -45,0 -66,-5 -55,-31 -61,-51 -50,-57 -45,-46 -41,-56 -20,-62 -10,-87 5,-77 20,-41 41,-97 20,-61 35,-67 15,-31 5,-77 0,-15 1,-26 -26,-35 -15,-57 -55,-41 -71,21 -55,51 -66,15 -70,0 -61,-16 -85,-138 -5,-20 -10,-26 -50,-26 -192,-15 -20,82 30,51 -5,31 -35,35 -35,-5 -36,0 -45,-15 -35,0 -36,-5 -50,10 -353,209 -222,128 -35,36 -20,20 -20,41 5,41 20,57 45,66 76,93 30,61 25,46 0,47 5,35 5,62 -10,51 -21,61 -20,36 -25,41 -25,36 -20,36 15,61 15,47 35,56 30,56 -45,0 -51,5 -292,5 -156,5 -162,0 -156,-1 -166,5 -96,0 -302,-11 -5,-46 -20,-72 20,-41 -10,-92 -10,-46 -70,-56 -35,-36 -10,-31 0,-46 5,-36 -20,-46 0,-98 -46,-15 -30,-41 -40,-5 -20,-31 -45,-26 -81,-25 -21,-31 -17,-16 -92,-62 -41,-51 18,-59 45,-31 3,-125 -257,-82 -136,-98 -151,36 -85,-93 -35,-25 -31,-31 -45,-31 -85,-113 -81,-92 -60,15 -35,-82 -25,-51 -55,-26 -51,-26 -30,-26 -85,-36 -66,56 -61,21 -55,-57 -40,-87 -25,-41 -50,-5 -51,-16 -60,-143 -35,-149 31,-87 35,-62 31,-76 20,-88 -20,-82 -15,-97 -25,-36 -30,-41 -76,10 -40,15 -20,-5 -25,-10 -35,-36 -40,-26 0,-20 40,-21 5,-41 -25,-82 -111,-41 -30,-21 -70,-36 -55,0 -66,-16 -45,-66 -80,-31 -36,-41 -70,-21 -35,-108 -75,-46 -146,-180 -30,-41 -30,-57 -50,-87 -141,51 -76,20 -50,-26 -55,-10 -55,-52 -136,-87 -25,-108 11,-72 30,-51 45,-36 46,-41 15,-46 30,-82 1,-82 -35,-56 -20,-67 -71,-11 -45,-20 -25,-21 -30,-36 -86,5 -15,-31 -20,-20 0,-16 -20,-36 -30,-30 -65,-6 -40,5 -86,0 -20,-62 -35,-123 -5,-36 -9,-36 -30,-77 25,-92 -55,-47 -65,-77 10,-31 106,-66 -5,-41 30,-36 35,-25 46,-21 40,-5 10,-46 -30,5 -45,-26 -55,-41 -61,-5 -15,-26 -20,-46 51,-5 55,-51 51,-51 85,-5 20,-26 -50,-46 -45,-26 -126,-41 5,-36 -4,-62 -10,-62 20,-35 5,-129 -40,-15 -111,81 -60,-25 -60,-6 -45,10 -45,-128 20,-46 15,-113 116,-92 1,-93 -80,-72 -40,-61 -21,-26 -50,-36 -55,-36 -76,87 -40,46 -55,25 -61,10 -95,-62 -45,-41 -45,-103 -45,-15 -25,-26 -20,-67 20,-72 -25,-51 -29,-62 5,-20 10,-31 95,-51 16,-72 40,-46 75,16 36,-57 30,-25 5,-93 86,-61 65,-5 91,-10 0,-36 -10,-46 -5,-52 31,-36 0,-41 35,-66 86,-87 45,15 70,36 50,-10 21,-41 -60,-56 15,-134 35,-31 31,-30 35,-5 80,-10 -5,-26 -150,-150 -110,-123 -20,-72 -45,-47 -110,-118 -70,-31 -40,-36 -30,-57 -35,-72 5,-15 0,-16 30,-20 -5,-41 -39,-160 -25,-62 5,-77 10,-51 31,-77 -5,-16 15,-51 -5,-41 41,-98 -15,-66 -50,-67 -65,-42 -40,-20 -40,-52 -35,-57 0,-72 10,-82 0,-77 -40,-41 -4,-36 0,-52 15,-56 -20,-57 -10,-26 61,-35 30,-26 40,-10 15,-57 -45,-67 -30,-61 -25,-42 -44,-87 -66,15 -75,10 -45,5 -46,26 -50,51 -50,36 -36,92 -100,-21 -35,-67 -50,-77 -65,-57 -60,-16 -60,-41 -45,-21 -25,-20 -10,-62 55,-46 96,-56 40,-16 41,-51 5,-57 z" />
</svg>
